<?xml version="1.0" standalone="no"?>
<!DOCTYPE svg PUBLIC "-//W3C//DTD SVG 20010904//EN"
 "http://www.w3.org/TR/2001/REC-SVG-20010904/DTD/svg10.dtd">
<svg version="1.0" xmlns="http://www.w3.org/2000/svg"
 width="310.000000pt" height="250.000000pt" viewBox="0 0 310.000000 250.000000"
 preserveAspectRatio="xMidYMid meet">

<g transform="translate(0.000000,250.000000) scale(0.100000,-0.100000)"
fill="#000000" stroke="none">
<path d="M1385 1844 c-158 -43 -300 -142 -406 -283 -98 -129 -136 -237 -145
-416 -5 -91 -2 -125 14 -195 21 -86 73 -213 92 -225 19 -12 10 19 -16 57 -37
52 -33 107 7 108 7 0 41 -39 88 -100 13 -17 25 -29 28 -26 2 2 -7 33 -22 69
-65 163 -74 297 -31 439 35 115 87 198 178 283 251 237 615 229 870 -19 126
-122 187 -291 175 -481 -9 -133 -39 -216 -120 -325 -164 -223 -418 -305 -699
-228 -43 12 -81 19 -84 16 -10 -11 20 -47 59 -68 21 -12 43 -33 50 -47 20 -44
54 -53 194 -53 151 0 229 16 322 65 252 133 398 348 426 625 14 134 -32 332
-106 457 -52 88 -200 230 -292 281 -170 93 -391 118 -582 66z"/>
<path d="M1481 1580 c-229 -68 -363 -231 -378 -461 -4 -67 -2 -98 12 -140 50
-153 131 -251 259 -314 189 -94 406 -62 556 81 109 104 150 202 150 358 0 76
-5 115 -20 155 -62 171 -185 281 -361 325 -83 20 -137 19 -218 -4z m219 -150
c147 -38 268 -229 240 -380 -32 -171 -180 -300 -345 -300 -196 0 -357 178
-343 379 16 222 221 359 448 301z"/>
<path d="M1547 1306 c-93 -22 -167 -114 -167 -207 0 -50 44 -143 79 -166 54
-36 75 -43 137 -43 51 0 72 5 102 24 136 87 150 247 32 349 -22 19 -55 37 -73
40 -18 3 -39 7 -47 10 -8 2 -37 -1 -63 -7z"/>
</g>
</svg>
